PathFileType	4	(X/Y/Z)	C:\Users\gl24\Desktop\Patient 1 Synergy Driven Model\NMS_Pipeline_Results_NewModel\Right\TRC Data (Extra Frame)\Patient3_NormalGait_1pt2_02_Right_25.trc.trc
DataRate	CameraRate	NumFrames	NumMarkers	Units	OrigDataRate	OrigDataStartFrame	OrigNumFrames
87.500000000000	87.500000000000	4	33	mm	87.500000000000	125	       142
Frame#	Time	L.Toe			R.Toe			L.Heel			Neck			R.Shoulder			L.Shank.Lateral			R.Shank.Lateral			R.Midfoot.Lateral			L.Shoulder			R.Midfoot.Superior			R.Elbow			L.Wrist			L.Elbow			R.Heel			R.Wrist			L.Midfoot.Superior			R.Thigh.Superior			Sternum			R.Shank.Superior			R.Shank.Inferior			L.Thigh.Superior			R.Patella			L.Midfoot.Lateral			L.Shank.Inferior			L.Patella			R.Thigh.Inferior			R.Thigh.Lateral			L.Thigh.Inferior			L.Thigh.Lateral			R.Asis			L.Asis			L.Shank.Superior			Sacral			
		X1	Y1	Z1	X2	Y2	Z2	X3	Y3	Z3	X4	Y4	Z4	X5	Y5	Z5	X6	Y6	Z6	X7	Y7	Z7	X8	Y8	Z8	X9	Y9	Z9	X10	Y10	Z10	X11	Y11	Z11	X12	Y12	Z12	X13	Y13	Z13	X14	Y14	Z14	X15	Y15	Z15	X16	Y16	Z16	X17	Y17	Z17	X18	Y18	Z18	X19	Y19	Z19	X20	Y20	Z20	X21	Y21	Z21	X22	Y22	Z22	X23	Y23	Z23	X24	Y24	Z24	X25	Y25	Z25	X26	Y26	Z26	X27	Y27	Z27	X28	Y28	Z28	X29	Y29	Z29	X30	Y30	Z30	X31	Y31	Z31	X32	Y32	Z32	X33	Y33	Z33	

125	29.737142857143	393.192650260211	37.125071798270	393.009807407150	1059.130679454704	130.080770538588	563.301683826206	124.887128011177	112.374388362492	434.302899871755	511.219318550552	1432.858191417920	474.628077699366	563.111026966814	1390.440261088324	642.552231281656	313.378747632562	363.702645844690	321.010160898967	737.454825243332	343.766564037813	643.427766415628	866.790133076400	46.853250700822	599.479333018992	595.415373521853	1407.970605233815	326.272787649448	930.592592535500	132.286034863469	557.636491857434	462.886080588899	1054.738074608404	722.303663698320	834.161928140183	940.158732609658	206.496118193615	612.186363810911	1075.590198788981	192.940236094151	784.329523173676	31.271097934252	536.714088070316	484.055045232145	802.553283824481	750.164214942331	302.206040627817	96.072314784072	396.858420460769	718.733799705241	723.084681051424	602.075562500926	669.022682972566	1341.671254189404	487.858717094417	801.453657624365	414.211239051125	596.122237752877	841.909181085424	242.489631283543	576.304412485324	620.287741496399	694.635837608934	344.639709991169	794.311670935155	523.035548423898	577.287594520996	193.454513121248	71.223553233569	371.247127352280	332.896833246533	243.435983812014	384.950711562972	505.471071545507	453.405320825520	379.336406457908	754.350167459273	620.099400166672	585.646641979991	659.259151846406	647.560985918707	660.913675061253	570.058115256380	572.596806686077	359.498370872932	505.445344493959	645.228713218811	303.711917991909	626.220525993843	946.910337132112	601.080593068216	635.956579160134	930.224969631433	340.492056881951	419.812794092134	374.936103632438	363.638883823062	452.164373264133	964.096985758529	472.633704470513	
126	29.748571428571	379.628569749229	37.202752704396	393.058557451466	1051.728263480472	116.674209292017	561.090139983000	115.397960751729	119.898303752651	434.114445617471	512.024792754989	1431.023789516956	476.094351867733	563.720759324238	1388.825728888468	644.131779184339	310.782332578445	365.560235766857	321.743751671785	738.697461061460	342.656964048741	643.674125201952	856.099293919276	42.901011661123	598.649674296536	596.419568574691	1406.096669652842	327.796670891780	923.527732972809	125.103151689556	556.132099070959	465.561767907319	1052.444451819106	724.171165080657	833.723437233365	936.964063525696	207.992321815154	612.337228516145	1073.268509707607	194.987245769913	772.814948571802	31.883331040585	536.297508698140	488.764936112564	800.497239315102	752.341274950876	291.994482253015	96.242824412783	396.443462345633	723.500381183231	723.373433713683	604.222049744960	670.076892007076	1340.275299996670	489.561195768672	803.602672152549	411.339401310138	594.997433030894	838.728997738935	238.523865633736	574.936583704952	621.523779002787	692.503985085906	345.319100145860	797.944573557234	521.967872277802	577.920359019898	182.197884282029	75.855222517312	371.205289735270	327.056060312088	244.502720615957	384.954550885918	506.242994240669	450.273287187410	379.443777026513	759.102923518420	620.284996113832	586.981342612956	663.367645981247	647.139443918665	661.111893001942	571.279275597388	570.408492023134	359.725659098311	506.365462889172	643.533864789587	305.185410954517	628.548818856375	945.634769240286	602.806433565858	638.387949920303	927.983683741298	342.177153732989	417.666747102341	373.679830650898	364.150316342304	454.429888569883	962.339939221428	474.275674785635	
127	29.760000000000	366.011098770633	37.176922769687	393.135505524086	1043.442030822770	102.902523649367	558.861549052799	106.928542484708	128.526459988267	434.046750855700	512.840974716079	1429.440009168217	477.596837267536	564.324093102434	1387.500134669749	645.758379627729	309.334953573849	367.507816739532	322.639007020528	739.694724342407	341.795523493169	644.301665884308	844.478614553016	39.150968737921	598.039574217408	597.482747961033	1404.507330568928	329.376565726657	915.673586529686	117.925870505366	554.813166927530	468.622790030941	1050.321086513185	726.085221931722	832.768342800780	933.289747210783	209.512311163322	612.406124510147	1071.180256099849	197.262202380956	760.348846898202	32.760381323427	536.187322436018	494.206333357819	798.658016678005	754.556884019769	282.229148486277	96.525532340690	396.172148009266	728.673645781249	723.787542851201	606.337765529249	671.189111390010	1339.241791591266	491.331988776425	805.481985901166	408.589932468054	594.105812728669	835.022040185801	234.703172657734	573.828299325111	623.444068728843	690.509259508026	346.172161943337	801.496103072264	520.921302820409	578.448274505934	171.520233407058	81.376752493740	371.245852903673	322.198466107359	245.743770717965	385.029286230190	508.373442237406	446.813568835064	379.635834589098	763.951026198662	620.495473670151	588.278429726787	667.595290466192	647.018091261023	661.246736738613	573.473923972331	568.227697048416	360.192570813560	508.093407756105	641.684359445775	306.823613283070	631.222075305466	944.805915822561	604.467995881261	641.090869824951	925.931324572387	343.906893903872	416.610905054045	372.283905753210	364.744936710830	456.990557306560	960.852499168446	475.890667535078	
128	29.771428571429	352.338753366684	36.945353854574	393.239320513533	1034.410482700458	89.705053443506	556.784043996069	99.733715657794	138.401412636661	434.087821266319	513.663706689191	1428.147358846547	479.122965621122	564.936999582476	1386.492589683807	647.408729415826	309.211572410178	369.535945543490	323.671701749024	740.321033490034	341.224916930027	645.304428453826	832.327658857064	35.859015408794	597.665311880684	598.578967203512	1403.248855509227	330.988740397248	907.165093322307	111.237642019668	553.759808112108	472.053550785314	1048.418704956139	728.037841963457	831.286612181350	929.187821182019	211.052481627220	612.402852805952	1069.375911247663	199.763801186053	747.415471401899	33.792279800484	536.341316684429	500.337677462517	797.090077206201	756.798024608794	272.976959941860	97.046306484874	396.066238841107	733.935487038299	724.341764809328	608.306951922726	672.347306739386	1338.595459055185	493.132749585615	806.974554362103	406.063656646228	593.581749476701	830.828273215014	231.221926783937	573.074770377168	626.063476590662	688.686820982666	347.213237810292	804.850757881190	519.951568733590	578.964727058148	161.615288980705	87.968164764559	371.345955736257	318.469211446111	247.181714557769	385.198620369740	511.964775403771	443.043289849508	379.957027019322	768.643879936050	620.781018643897	589.515167828690	671.810825065526	647.244453609907	661.458304136916	576.751574440017	566.054254561219	360.875261047982	510.691026322999	639.651967304093	308.615575711448	634.135066870914	944.455274117635	606.064404570024	643.963409328813	924.112800143022	345.686516445628	416.787733166860	370.737302058119	365.450237688723	459.755632843664	959.670954301423	477.453570168464	
